<svg width="177" height="19" viewBox="0 0 177 19" fill="none" xmlns="http://www.w3.org/2000/svg">
<path d="M3.87168 11.7252H10.4051V8.20349H3.87168V4.48609H11.857V0.964355H0V18.573H3.87168V11.7252Z" fill="#151515"/>
<path d="M13.1832 11.9698V18.573H16.8129V11.9698C16.8129 9.9399 18.4342 8.30131 20.4426 8.30131V4.97522H19.9586C15.9418 4.97522 13.1832 8.10566 13.1832 11.9698Z" fill="#151515"/>
<path d="M28.5574 4.97522C24.5406 4.97522 21.298 8.10566 21.298 11.9698C21.298 15.8339 24.5406 18.9644 28.5574 18.9644C31.7516 18.9644 34.4618 16.9834 35.4297 14.2198H31.4128C30.7595 15.0758 29.7189 15.6383 28.5574 15.6383C26.9846 15.6383 25.6779 14.6356 25.1455 13.2415H35.6959C35.7685 12.8258 35.8169 12.41 35.8169 11.9698C35.8169 8.10566 32.5743 4.97522 28.5574 4.97522ZM25.1455 10.6981C25.6779 9.30403 26.9846 8.30131 28.5574 8.30131C30.1061 8.30131 31.437 9.30403 31.9694 10.6981H25.1455Z" fill="#151515"/>
<path d="M43.7453 10.7959C42.3418 10.6247 40.7447 10.0133 40.7447 9.23066C40.7447 8.35022 41.4949 8.05675 42.2934 8.05675C43.0919 8.05675 43.8421 8.35022 43.8421 9.47522H47.4718C47.4718 6.63827 45.1004 4.97522 42.2934 4.97522C39.4864 4.97522 37.115 6.63827 37.115 9.32849C37.115 11.4073 39.559 12.9725 42.0998 13.2904C43.1887 13.4372 43.9873 13.9997 43.9873 14.6111C43.9873 15.4671 43.0919 15.8828 42.2934 15.8828C41.4949 15.8828 40.5995 15.5894 40.5995 14.4644H36.9698C36.9698 17.3013 39.4864 18.9644 42.2934 18.9644C45.1004 18.9644 47.617 17.3013 47.617 14.4644C47.617 12.2388 45.6569 11.016 43.7453 10.7959Z" fill="#151515"/>
<path d="M56.2821 4.97522C55.0722 4.97522 53.9833 5.41544 53.1364 6.14914V0.964355H49.5067V18.573H53.1364V11.9453C53.1364 9.9399 54.2737 8.30131 56.2821 8.30131C58.2906 8.30131 59.4279 9.9399 59.4279 11.9698V18.573H63.0576V11.9698C63.0576 8.10566 60.299 4.97522 56.2821 4.97522Z" fill="#151515"/>
<path d="M72.0175 4.97522C68.0006 4.97522 65.242 8.10566 65.242 11.9698V18.573H68.8717V11.9698C68.8717 9.9399 70.009 8.30131 72.0175 8.30131C74.0259 8.30131 75.1632 9.9399 75.1632 11.9698V18.573H78.7929V11.9698C78.7929 8.10566 76.0343 4.97522 72.0175 4.97522Z" fill="#151515"/>
<path d="M87.6346 4.97522C83.6178 4.97522 80.3752 8.10566 80.3752 11.9698C80.3752 15.8339 83.6178 18.9644 87.6346 18.9644C90.8288 18.9644 93.539 16.9834 94.5069 14.2198H90.49C89.8367 15.0758 88.7961 15.6383 87.6346 15.6383C86.0618 15.6383 84.7551 14.6356 84.2227 13.2415H94.7731C94.8457 12.8258 94.8941 12.41 94.8941 11.9698C94.8941 8.10566 91.6515 4.97522 87.6346 4.97522ZM84.2227 10.6981C84.7551 9.30403 86.0618 8.30131 87.6346 8.30131C89.1833 8.30131 90.5142 9.30403 91.0466 10.6981H84.2227Z" fill="#151515"/>
<path d="M102.822 10.7959C101.419 10.6247 99.8219 10.0133 99.8219 9.23066C99.8219 8.35022 100.572 8.05675 101.371 8.05675C102.169 8.05675 102.919 8.35022 102.919 9.47522H106.549C106.549 6.63827 104.178 4.97522 101.371 4.97522C98.5636 4.97522 96.1922 6.63827 96.1922 9.32849C96.1922 11.4073 98.6362 12.9725 101.177 13.2904C102.266 13.4372 103.064 13.9997 103.064 14.6111C103.064 15.4671 102.169 15.8828 101.371 15.8828C100.572 15.8828 99.6768 15.5894 99.6768 14.4644H96.047C96.047 17.3013 98.5636 18.9644 101.371 18.9644C104.178 18.9644 106.694 17.3013 106.694 14.4644C106.694 12.2388 104.734 11.016 102.822 10.7959Z" fill="#151515"/>
<path d="M115.117 4.97522C111.1 4.97522 107.858 8.10566 107.858 11.9698C107.858 15.8339 111.1 18.9644 115.117 18.9644C118.311 18.9644 121.022 16.9834 121.99 14.2198H117.973C117.319 15.0758 116.279 15.6383 115.117 15.6383C113.544 15.6383 112.238 14.6356 111.705 13.2415H122.256C122.328 12.8258 122.377 12.41 122.377 11.9698C122.377 8.10566 119.134 4.97522 115.117 4.97522ZM111.705 10.6981C112.238 9.30403 113.544 8.30131 115.117 8.30131C116.666 8.30131 117.997 9.30403 118.529 10.6981H111.705Z" fill="#151515"/>
<path d="M130.596 8.30131C131.999 8.30131 133.185 9.08392 133.814 10.2578H137.637C136.839 7.22522 133.983 4.97522 130.596 4.97522C126.579 4.97522 123.336 8.10566 123.336 11.9698C123.336 15.8339 126.579 18.9644 130.596 18.9644C133.959 18.9644 136.766 16.7633 137.589 13.7796H133.693C133.088 14.8801 131.951 15.6383 130.596 15.6383C128.587 15.6383 126.966 13.9997 126.966 11.9698C126.966 9.9399 128.587 8.30131 130.596 8.30131Z" fill="#151515"/>
<path d="M152.929 11.9698C152.929 8.10566 149.711 4.97522 145.718 4.97522C141.726 4.97522 138.507 8.10566 138.507 11.9698C138.507 15.8339 141.726 18.9644 145.718 18.9644C149.711 18.9644 152.929 15.8339 152.929 11.9698ZM149.3 11.9698C149.3 13.9997 147.702 15.6383 145.718 15.6383C143.734 15.6383 142.137 13.9997 142.137 11.9698C142.137 9.9399 143.734 8.30131 145.718 8.30131C147.702 8.30131 149.3 9.9399 149.3 11.9698Z" fill="#151515"/>
<path d="M170.467 4.97522C168.579 4.97522 166.885 5.8312 165.748 7.20077C164.611 5.8312 162.917 4.97522 161.029 4.97522C157.012 4.97522 154.496 8.10566 154.496 11.9698V18.573H158.126V11.9698C158.126 9.9399 159.021 8.30131 161.029 8.30131C163.038 8.30131 163.933 9.9399 163.933 11.9698V18.573H167.563V11.9698C167.563 9.9399 168.458 8.30131 170.467 8.30131C172.475 8.30131 173.37 9.9399 173.37 11.9698V18.573H177V11.9698C177 8.10566 174.483 4.97522 170.467 4.97522Z" fill="#151515"/>
</svg>
